<?xml version="1.0" encoding="UTF-8"?>
<!DOCTYPE svg PUBLIC "-//W3C//DTD SVG 1.1//EN" "http://www.w3.org/Graphics/SVG/1.1/DTD/svg11.dtd">
<!-- Creator: CorelDRAW SE -->
<svg xmlns="http://www.w3.org/2000/svg" xml:space="preserve" width="1300px" height="1000px" version="1.1" style="shape-rendering:geometricPrecision; text-rendering:geometricPrecision; image-rendering:optimizeQuality; fill-rule:evenodd; clip-rule:evenodd"
viewBox="0 0 1300 1000"
 xmlns:xlink="http://www.w3.org/1999/xlink">
 <defs>
  <style type="text/css">
   <![CDATA[
    .fil0 {fill:#575B69}
    .fil7 {fill:#CCCBCC}
    .fil6 {fill:#E6E6E6}
    .fil1 {fill:#E6E6E6}
    .fil4 {fill:#E8EAEA}
    .fil5 {fill:#FCFCFC}
    .fil2 {fill:#575B69;fill-rule:nonzero}
    .fil3 {fill:#B3B3B3;fill-rule:nonzero}
   ]]>
  </style>
 </defs>
 <g id="Ebene_x0020_1">
  <metadata id="CorelCorpID_0Corel-Layer"/>
  <g id="_1008803784">
   <path class="fil0" d="M99 334c-3,14 -8,26 -11,42 -8,51 -6,94 8,142 17,55 48,110 87,152 8,8 33,29 44,36 22,13 45,25 71,34 29,10 51,22 68,39 16,16 31,38 35,72 4,-9 2,-36 36,-70 23,-23 37,-28 67,-39 41,-16 69,-33 100,-59l26 -26c35,-42 61,-83 76,-136 13,-45 15,-97 7,-144 -2,-15 -8,-30 -10,-43 10,-6 43,-8 53,-31 10,-24 -15,-39 -30,-47 -18,-10 -36,-20 -54,-30 -19,-9 -36,-20 -55,-29 -14,-8 -178,-95 -190,-104 -4,-3 -7,-6 -10,-10 -9,-12 -20,-13 -27,-4 -5,5 -1,3 -9,11 -7,6 -17,11 -27,16 -19,9 -36,20 -54,30 -18,10 -36,19 -54,29l-109 59c-18,10 -36,20 -54,30 -15,8 -43,22 -35,47 7,22 36,24 51,33z"/>
   <g>
    <path class="fil1" d="M146 589c-1,-41 19,-77 44,-106 2,-3 3,-4 5,-6 -7,-5 -9,-10 -9,-22 1,-20 9,-39 25,-51 3,-2 5,-4 8,-6 -2,-4 -4,-15 -6,-20 -3,-11 1,-15 4,-24 -19,0 -80,-11 -102,-15 -20,75 -21,126 6,198 8,22 23,44 25,52z"/>
    <path class="fil1" d="M587 353c1,7 7,10 6,21 -2,8 -6,16 -6,24 11,10 20,18 26,33 6,15 8,38 -5,45 2,4 13,18 17,23 12,16 22,34 27,55 4,15 3,22 4,37 8,-13 18,-36 25,-51 22,-49 23,-115 13,-169 -2,-10 -6,-21 -7,-32 -14,1 -33,7 -49,9 -16,2 -35,5 -51,5z"/>
    <path class="fil1" d="M182 307c-45,1 -85,-12 -101,-12 4,3 63,16 72,18 122,26 296,29 419,14 26,-4 52,-8 78,-13 25,-4 49,-12 72,-18 -7,-1 -40,6 -50,8 -9,1 -46,5 -54,4 4,1 80,-13 88,-16 -7,-4 -131,7 -149,8 -122,10 -186,8 -307,0 -23,-1 -137,-12 -149,-10 23,12 70,13 81,17z"/>
    <path class="fil1" d="M447 388c6,1 13,7 19,10 15,7 14,1 22,1 1,15 -37,-6 -60,0l-1 12c10,3 27,5 28,26 0,8 -3,11 -3,16 1,2 14,15 27,-5 3,-4 3,-6 7,-9 3,6 -4,17 -6,20 14,-3 48,-46 50,-47 3,-3 5,-4 7,-8 2,-10 -2,-15 -10,-17 -8,-1 -18,-2 -26,-2 -10,-1 -17,-1 -27,-1 -5,0 -9,0 -14,0l-9 2c-3,1 -2,1 -4,2z"/>
    <path class="fil1" d="M380 440c-8,-3 -8,-10 -12,-18 -14,5 -8,23 0,29 8,6 19,14 32,15 27,2 59,-31 36,-44 -5,9 -3,11 -11,18 2,-6 7,-15 1,-20 -13,-11 -1,-31 -9,-46 -10,-20 -37,-14 -31,28 2,12 -1,14 -8,19 -7,4 0,14 2,19z"/>
    <path class="fil1" d="M429 280l24 0c-2,-19 -9,-40 -11,-60 2,1 1,0 2,2l17 58 21 0c-4,-24 -17,-56 -25,-78 -4,-12 -11,-23 -16,-35 -6,-11 -9,-26 -17,-35 1,7 4,13 6,20 3,15 11,59 6,70 -2,-4 -8,-39 -10,-48 -4,-15 -7,-30 -13,-44 -1,8 2,28 3,37 1,14 1,27 1,41 1,15 1,23 5,38 3,11 6,23 7,34z"/>
    <path class="fil1" d="M273 394c11,-3 20,-5 25,5 -10,1 -21,0 -19,13 1,10 23,30 30,36 4,5 12,11 18,14 0,-6 -11,-11 -9,-24 6,2 2,7 13,16 2,2 7,5 10,6 4,0 9,-2 10,-6 1,-2 -9,-27 11,-39 8,-4 15,0 16,-9 2,-15 -25,-8 -33,-6 -5,2 -28,10 -29,-1 10,4 15,3 23,-2l20 -10c-24,-6 -53,-3 -78,2 -5,1 -7,1 -8,5z"/>
    <path class="fil1" d="M384 548l5 -27c-6,6 -16,22 -14,35 1,10 16,62 20,80 3,14 5,28 9,42 0,-1 5,-37 6,-42 2,-14 6,-27 10,-40 2,-13 7,-27 8,-40 2,-14 -14,-34 -14,-34 -1,6 5,18 4,26 -6,-6 -13,-24 -16,-30 -4,11 -12,21 -18,30z"/>
    <path class="fil1" d="M364 226c-1,-9 0,-14 -1,-22 -5,-18 9,-54 9,-59 -9,23 -20,42 -30,64 -9,23 -16,47 -22,71l20 0c4,-14 15,-47 15,-60 4,17 -6,50 -6,60l21 0c2,-11 5,-24 7,-35 4,-15 3,-22 3,-38 -1,-47 1,-37 8,-77 -5,7 -13,34 -15,45 -4,15 -5,38 -9,51z"/>
    <path class="fil1" d="M556 279c8,-3 11,-2 15,-4l-27 -50c9,4 31,35 36,43 5,9 5,8 18,7l-20 -31c-6,-10 -14,-20 -21,-28 -8,-10 -42,-43 -52,-49 8,9 31,30 34,43 -6,-3 -12,-13 -16,-17 -12,-13 -21,-23 -35,-33 -13,-10 -14,-14 -18,-16 4,6 8,10 12,15 4,5 8,11 11,16 7,13 14,23 21,35l32 50c3,6 8,11 10,19z"/>
    <path class="fil1" d="M267 604c-22,-17 -24,-41 -32,-60 -2,-3 -4,-6 -5,-10 -2,-3 -3,-9 -5,-12 -1,4 -7,23 -8,27 -1,25 11,45 28,60 18,16 29,21 44,46 7,12 23,28 35,35 -7,-5 -23,-24 -29,-33 -15,-23 -29,-68 -30,-97 -1,-11 0,-21 0,-31 -1,-11 -3,-20 -4,-30 1,19 -10,36 0,81 1,7 5,18 6,24z"/>
    <path class="fil1" d="M382 281l36 0 -8 -78c-2,8 -4,15 -7,24 -5,-5 -2,-41 -2,-55l-3 -53c-3,3 -11,68 -12,78 -1,14 0,28 -1,43 -1,8 -5,35 -3,41z"/>
    <path class="fil1" d="M481 688c21,-9 38,-49 58,-64 16,-13 32,-26 41,-46 9,-18 4,-40 -1,-59 -2,11 -4,15 -8,24 -10,21 -6,33 -28,55l-8 8c4,-5 12,-37 13,-47 2,-18 -1,-41 -4,-58 -5,11 -2,44 -3,58 -1,20 -13,55 -21,73 -6,16 -22,39 -35,51 -1,1 -1,1 -2,2 -2,3 0,0 -2,3z"/>
    <path class="fil1" d="M523 279l18 1c-5,-16 -41,-83 -54,-97l-14 -15c-5,-5 -25,-32 -27,-34 2,10 12,29 17,38l39 72c3,6 6,12 10,18 2,3 4,5 6,8 2,4 2,6 5,9z"/>
    <path class="fil1" d="M375 387c-1,-8 -5,-29 -8,-34 -23,-4 -57,-8 -77,5 -5,3 -5,6 -9,7 0,-9 4,-10 6,-16 -3,5 -5,2 -9,11 -3,5 -6,11 -2,15 13,15 42,-12 70,-5 8,2 19,8 25,13l4 4z"/>
    <path class="fil1" d="M267 279l18 0c5,-11 11,-22 17,-35 8,-17 47,-102 47,-110 -7,11 -15,21 -23,32 -18,23 -27,48 -41,74 -4,9 -16,30 -18,39z"/>
    <path class="fil1" d="M439 353l-7 32c6,-2 7,-8 27,-14 28,-8 50,14 67,7 9,-5 4,-25 -4,-28 3,5 5,10 3,16 -13,-18 -38,-19 -62,-16 -9,1 -14,4 -24,3z"/>
    <path class="fil1" d="M368 669c4,-24 -5,-76 -4,-107 0,-9 4,-27 4,-33 -12,19 -23,42 -24,69 0,20 14,60 24,71z"/>
    <path class="fil1" d="M437 670c0,0 0,-1 0,-1l8 -15c2,-5 4,-10 6,-16 4,-13 7,-25 8,-39 0,-11 -3,-29 -7,-39 -4,-11 -12,-24 -18,-29 2,12 5,17 5,31 0,12 0,24 -1,36 -2,25 -1,47 -1,72z"/>
    <path class="fil1" d="M238 276l14 1c5,-9 11,-17 17,-27l48 -82c-8,2 -30,29 -36,34 -3,4 -6,9 -9,15 -2,5 -7,8 -10,13l-24 46z"/>
    <path class="fil1" d="M249 694c-5,-2 -27,-21 -29,-24 -11,-13 -15,-17 -25,-31 -6,-10 -13,-23 -18,-36 -2,-8 -12,-37 -10,-43 -5,43 -4,59 18,88 13,17 44,38 64,46z"/>
    <path class="fil1" d="M235 662c-7,-18 -21,-34 -24,-55 -4,-27 -4,-15 -10,-31l-8 -31c-7,30 -8,42 4,69 8,19 19,26 28,36 3,4 6,9 10,12z"/>
    <path class="fil1" d="M573 656l8 -10c2,-2 3,-3 5,-5 7,-9 16,-21 21,-31 11,-23 9,-42 0,-66 -2,26 -11,36 -15,59 -2,11 -4,18 -8,28l-11 25z"/>
    <path class="fil1" d="M558 691c16,-8 31,-20 44,-31l12 -12c21,-23 22,-42 20,-81 -2,6 -3,15 -5,21 -4,17 -14,37 -23,51 -11,17 -22,27 -35,40 -3,4 -9,8 -13,12z"/>
    <path class="fil1" d="M296 280l11 0 61 -144 -20 35c-7,11 -12,23 -18,35 -7,12 -11,25 -17,37 -6,12 -13,25 -17,37z"/>
    <path class="fil1" d="M356 697c-3,-6 -8,-12 -12,-19 -13,-23 -13,-60 -21,-73 -8,8 -13,8 -12,24 1,18 18,36 27,48 5,6 13,17 18,20z"/>
    <path class="fil1" d="M232 242l4 0c0,0 0,0 0,0l2 -1c0,0 0,0 0,0l1 0c2,2 2,4 2,7 4,-3 10,-12 14,-16l15 -15c3,-3 4,-9 7,-14 5,-8 11,-15 17,-22 6,-8 15,-17 17,-22l-20 18c-4,3 -7,6 -11,10l-10 10c-9,9 -8,9 -16,15 -3,3 -2,3 -4,6 -6,7 -15,16 -18,24z"/>
    <path class="fil1" d="M494 280l14 0 -13 -29c-12,-28 -26,-59 -44,-83l22 55c4,10 7,19 11,29 3,9 8,19 10,28z"/>
    <path class="fil1" d="M450 695c4,-2 9,-10 12,-14 12,-15 39,-49 26,-68 -4,-5 -6,-6 -9,-9 -3,16 -11,59 -17,73 -4,7 -9,12 -12,18z"/>
    <path class="fil1" d="M474 578c5,-14 -2,-52 -8,-64 -4,-8 -9,-15 -16,-21 -6,-4 -16,-11 -25,-13l16 20c18,24 32,45 33,78z"/>
    <path class="fil1" d="M331 556l1 22c2,-28 13,-58 30,-78l8 -10c3,-4 4,-8 8,-9 -13,2 -30,16 -35,25 -7,11 -13,33 -12,50z"/>
    <path class="fil1" d="M164 259c5,-1 8,-4 11,-6 26,-18 65,-46 89,-65 7,-5 12,-9 20,-15 6,-5 6,-2 15,-10 3,-3 22,-16 23,-19 -7,4 -14,8 -20,13l-30 21c-3,2 -6,5 -10,8 -6,5 -12,10 -19,14 -12,8 -74,45 -79,59z"/>
    <path class="fil1" d="M186 269l9 2c6,-8 16,-21 22,-26l47 -48c4,-4 8,-8 12,-12 4,-4 9,-7 13,-12l-28 22c-3,5 -8,7 -13,12 -14,15 -59,47 -62,62z"/>
    <path class="fil1" d="M496 564c2,-19 -3,-36 -11,-51 -4,-8 -8,-12 -13,-18 -4,-3 -13,-13 -17,-14 4,7 6,5 12,18 9,19 11,19 20,43 2,7 8,18 9,22z"/>
    <path class="fil1" d="M312 565c2,-2 11,-37 14,-44 5,-10 11,-26 18,-34 3,-3 2,-1 4,-5 -11,5 -24,21 -29,33 -3,7 -6,14 -7,22 -1,5 -2,23 0,28z"/>
    <path class="fil1" d="M609 272l11 -1c-8,-12 -25,-28 -35,-37 -14,-13 -21,-22 -38,-34l32 35c9,9 6,5 16,17 6,7 9,12 14,20z"/>
    <path class="fil1" d="M153 247l44 -28c8,-5 43,-23 44,-30 -8,3 -16,9 -23,13 -12,6 -64,34 -65,45z"/>
    <path class="fil1" d="M232 242c-3,2 -10,11 -12,16l-8 13c-3,3 -2,0 -3,5 13,-3 8,7 26,-19l5 -6c0,-1 0,-1 0,-1 0,0 0,-1 0,-1l1 -1c0,-3 0,-5 -2,-7l-1 0c0,0 0,0 0,0l-2 1c0,0 0,0 0,0l-4 0z"/>
    <path class="fil1" d="M294 496c-4,-12 -12,-22 -18,-31 -4,-4 -13,-13 -17,-19 -2,-3 -3,-6 -6,-8 1,16 17,38 27,48 3,2 5,3 7,5 3,3 3,5 7,5z"/>
    <path class="fil1" d="M652 246c-4,-2 -11,-10 -20,-16 -8,-5 -15,-10 -23,-15 -11,-6 -38,-24 -49,-27 3,4 41,29 45,31 7,4 14,10 23,14 4,2 8,4 12,6 4,2 9,7 12,7z"/>
    <path class="fil1" d="M385 367c6,-4 5,-11 19,-11 9,0 15,5 18,10l4 -16 -44 -1c2,7 3,10 3,18z"/>
    <path class="fil1" d="M638 261c-1,-9 -40,-35 -52,-42l-38 -26c-13,-9 -41,-35 -55,-41l145 109z"/>
    <path class="fil1" d="M515 494c6,-1 18,-18 22,-23 4,-8 12,-22 13,-32 -16,27 -9,16 -28,39 -4,5 -6,10 -7,16z"/>
    <path class="fil1" d="M310 480c8,-2 6,-7 3,-14 -6,-10 -25,-29 -34,-35 8,9 27,34 31,49z"/>
    <path class="fil1" d="M586 419c1,6 7,14 9,22 3,11 -9,21 2,18 12,-3 2,-35 -11,-40z"/>
    <path class="fil1" d="M213 458c-2,-9 -7,-9 -2,-21 2,-6 6,-12 8,-17 -15,4 -28,45 -6,38z"/>
    <path class="fil1" d="M494 478c3,-1 1,1 3,-2l5 -11c7,-13 21,-26 27,-35 -4,4 -46,36 -35,48z"/>
   </g>
   <g>
    <path class="fil0" d="M296 369c4,-1 5,-2 8,-5 33,-21 50,2 64,12 -4,-13 -14,-23 -32,-24 -19,-1 -35,3 -40,17z"/>
    <path class="fil0" d="M440 376c4,-3 16,-16 33,-21 16,-4 28,8 38,13 -3,-19 -41,-23 -59,-9 -4,4 -11,10 -12,17z"/>
   </g>
   <path class="fil2" d="M77 916l0 3c0,3 -1,5 -2,6 -1,2 -3,2 -5,2 -2,0 -4,0 -5,-2 -1,-1 -2,-3 -2,-6 0,-2 0,-5 1,-9 0,-4 1,-6 1,-7 0,-3 -1,-6 -1,-10 -1,-3 -1,-5 -1,-6 0,-2 1,-4 2,-5 2,-2 3,-3 5,-3 3,0 4,1 5,3 1,1 2,4 2,8l0 3c0,6 3,11 8,15 6,4 14,6 24,6 7,0 13,-2 17,-5 5,-3 7,-8 7,-13 0,-3 -1,-5 -2,-7 -2,-2 -4,-4 -6,-5 -2,-1 -6,-2 -13,-3 -6,-1 -12,-2 -16,-2 -10,-3 -18,-6 -22,-11 -5,-4 -7,-11 -7,-19 0,-9 3,-17 10,-22 7,-5 16,-8 28,-8 5,0 10,1 15,2 5,2 9,4 12,7 0,0 0,-1 0,-1 0,0 0,-1 0,-2 0,-2 0,-3 1,-4 1,-2 3,-2 4,-2 2,0 3,0 4,2 1,1 2,3 2,4 0,0 0,1 0,2 -1,7 -1,14 -1,22l0 6c0,2 -1,4 -2,5 -1,1 -2,2 -4,2 -3,0 -4,-1 -5,-2 -1,-1 -1,-3 -1,-6l0 -3c0,-6 -2,-11 -7,-14 -4,-4 -10,-5 -18,-5 -8,0 -13,1 -17,4 -4,3 -6,7 -6,13 0,2 0,4 1,5 1,2 2,4 3,5 3,2 10,4 20,5 4,0 7,1 10,1 11,2 19,5 24,9 6,5 8,11 8,19 0,10 -4,19 -11,25 -7,6 -17,9 -29,9 -7,0 -13,-1 -18,-3 -6,-1 -10,-4 -13,-8z"/>
   <path id="1" class="fil2" d="M181 875l0 0c0,12 3,21 9,28 6,7 13,11 23,11 5,0 10,-1 14,-4 4,-2 8,-5 11,-9 1,-2 2,-5 4,-9 2,-5 5,-8 8,-8 2,0 4,0 5,2 1,1 2,3 2,5 0,3 -1,6 -3,9 -1,4 -3,8 -6,11 -4,6 -9,10 -15,12 -6,3 -13,4 -21,4 -15,0 -26,-5 -35,-15 -8,-9 -12,-23 -12,-39 0,-17 4,-30 12,-40 9,-10 20,-15 35,-15 14,0 25,5 33,13 9,8 13,20 13,34 0,4 -1,6 -2,8 -2,1 -4,2 -8,2l-4 0 -63 0zm1 -14l58 0 0 -1c0,-8 -2,-15 -7,-20 -6,-6 -13,-8 -21,-8 -8,0 -15,2 -20,8 -6,5 -9,12 -10,21z"/>
   <path id="2" class="fil2" d="M367 868c0,-13 -3,-22 -7,-27 -4,-6 -11,-8 -21,-8 -10,0 -18,3 -23,11 -5,7 -8,19 -8,35l0 21c0,5 0,8 2,10 0,1 2,2 5,2 1,0 2,0 3,-1 2,0 3,0 4,0 3,0 5,0 7,2 1,1 2,3 2,5 0,2 -1,4 -2,5 -1,1 -3,2 -6,2 0,0 -3,-1 -9,-1 -5,0 -10,-1 -15,-1 -5,0 -9,1 -14,1 -5,0 -8,1 -9,1 -3,0 -5,-1 -6,-2 -1,-1 -2,-2 -2,-5 0,-2 1,-4 2,-5 2,-2 4,-2 7,-2 0,0 1,0 3,0 1,1 2,1 2,1 4,0 7,-1 8,-2 2,-2 2,-5 2,-11l0 -50c0,-6 0,-10 -2,-12 -1,-2 -4,-3 -8,-3l-6 0c-3,0 -5,-1 -6,-1 -1,-1 -2,-3 -2,-5 0,-2 1,-4 2,-5 2,-1 4,-2 6,-2 1,0 2,0 4,1 2,0 4,0 6,0 4,0 8,0 13,-1 1,0 1,0 1,0 3,0 5,1 6,2 1,1 1,3 1,7l0 8c5,-7 10,-11 16,-14 5,-3 12,-4 19,-4 14,0 25,3 31,10 6,7 10,18 10,34l0 33c0,7 0,11 2,13 1,1 3,2 7,2 1,0 2,0 3,-1 2,0 2,0 3,0 3,0 5,0 6,2 2,1 3,3 3,5 0,2 -1,4 -2,5 -2,1 -4,2 -7,2 0,0 -3,-1 -8,-1 -5,0 -10,-1 -14,-1 -5,0 -10,1 -16,1 -5,0 -8,1 -9,1 -2,0 -4,-1 -5,-2 -1,-1 -2,-3 -2,-5 0,-2 1,-4 2,-5 1,-2 3,-2 6,-2 1,0 3,0 4,0 2,1 3,1 4,1 2,0 4,-1 5,-2 1,-2 2,-6 2,-13l0 -29z"/>
   <path id="3" class="fil2" d="M431 916l0 3c0,3 -1,5 -2,6 -1,2 -3,2 -5,2 -2,0 -4,0 -5,-2 -1,-1 -1,-3 -1,-6 0,-2 0,-5 0,-9 1,-4 1,-6 1,-7 0,-3 0,-6 -1,-10 0,-3 0,-5 0,-6 0,-2 0,-4 2,-5 1,-2 3,-3 5,-3 2,0 4,1 5,3 1,1 1,4 1,8l0 3c0,6 3,11 9,15 6,4 13,6 23,6 8,0 14,-2 18,-5 4,-3 6,-8 6,-13 0,-3 -1,-5 -2,-7 -1,-2 -3,-4 -6,-5 -1,-1 -6,-2 -12,-3 -7,-1 -12,-2 -16,-2 -11,-3 -18,-6 -23,-11 -5,-4 -7,-11 -7,-19 0,-9 3,-17 10,-22 7,-5 16,-8 28,-8 6,0 11,1 15,2 5,2 9,4 13,7 -1,0 -1,-1 -1,-1 0,0 0,-1 0,-2 0,-2 1,-3 2,-4 1,-2 2,-2 4,-2 1,0 3,0 4,2 1,1 1,3 1,4 0,0 0,1 0,2 -1,7 -1,14 -1,22l0 6c0,2 -1,4 -1,5 -2,1 -3,2 -5,2 -2,0 -4,-1 -4,-2 -1,-1 -2,-3 -2,-6l0 -3c0,-6 -2,-11 -6,-14 -5,-4 -11,-5 -19,-5 -7,0 -13,1 -17,4 -4,3 -6,7 -6,13 0,2 0,4 1,5 1,2 2,4 4,5 3,2 10,4 19,5 5,0 8,1 10,1 11,2 20,5 25,9 5,5 7,11 7,19 0,10 -3,19 -11,25 -7,6 -17,9 -29,9 -6,0 -12,-1 -18,-3 -5,-1 -10,-4 -13,-8z"/>
   <path id="4" class="fil2" d="M752 864c2,0 4,0 5,2 1,1 1,3 1,5 0,3 0,5 -1,6 -2,1 -3,2 -5,2l-38 0c-2,0 -4,-1 -5,-2 -1,-1 -1,-3 -1,-6 0,-2 0,-4 1,-5 1,-2 3,-2 5,-2l38 0z"/>
   <path id="5" class="fil2" d="M790 848c0,-6 0,-10 -1,-12 -1,-1 -3,-2 -6,-2l-8 0c-4,0 -6,-1 -7,-2 -1,-1 -2,-2 -2,-5 0,-2 1,-3 2,-5 1,-1 3,-1 6,-1 1,0 3,0 6,1 4,0 7,0 9,0 2,0 4,0 6,0 2,-1 4,-1 5,-1 3,0 4,0 5,2 1,1 1,4 1,9l0 2 0 43c0,13 2,23 6,28 4,6 11,8 21,8 11,0 19,-3 24,-11 5,-7 7,-19 7,-36l0 -18c0,-6 0,-10 -1,-12 -1,-1 -3,-2 -6,-2l-7 0c-3,0 -5,-1 -6,-2 -1,-1 -2,-2 -2,-5 0,-2 1,-4 2,-5 1,-1 3,-1 5,-1 1,0 4,0 7,1 3,0 6,0 8,0 2,0 4,0 6,0 2,-1 3,-1 4,-1 2,0 4,0 5,2 1,1 1,4 1,9l0 2 0 56c0,9 1,15 2,18 1,2 4,4 8,4l7 0c2,0 4,0 5,1 1,1 2,3 2,5 0,2 -1,4 -2,5 -2,1 -3,2 -6,2 -1,0 -2,0 -5,-1 -2,0 -4,0 -6,0 -2,0 -4,0 -7,0 -3,1 -5,1 -6,1 -2,0 -4,-1 -5,-2 -1,-1 -1,-3 -1,-7l0 -8c-5,6 -11,11 -16,14 -6,3 -12,4 -20,4 -14,0 -24,-4 -30,-10 -7,-7 -10,-19 -10,-35l0 -33z"/>
   <path id="6" class="fil2" d="M919 822c1,0 2,0 2,-1 1,0 1,-1 1,-2l0 -20c0,-2 1,-4 2,-5 1,-1 3,-2 5,-2 3,0 4,1 6,2 1,1 2,3 2,5l0 19c0,2 0,3 1,3 0,1 1,1 2,1l21 0c3,0 5,0 6,2 1,1 2,2 2,5 0,2 -1,4 -2,5 -2,1 -4,2 -7,2l-20 0c-1,0 -2,0 -2,1 -1,1 -1,2 -1,5l0 44c0,11 1,19 3,22 2,3 6,5 11,5 5,0 8,-2 11,-5 2,-3 4,-7 4,-13 0,-1 0,-3 -1,-5 0,-3 0,-4 0,-5 0,-4 1,-6 2,-8 1,-1 3,-2 5,-2 4,0 6,1 7,3 1,2 2,6 2,11 0,12 -3,22 -8,28 -5,7 -13,10 -23,10 -10,0 -18,-2 -22,-8 -4,-5 -7,-13 -7,-26l0 -51c0,-3 0,-5 0,-5 -1,-1 -2,-1 -3,-1l-8 0c-2,0 -4,-1 -5,-2 -1,-1 -2,-3 -2,-5 0,-3 1,-4 2,-6 1,-1 3,-1 6,-1l8 0z"/>
   <path id="7" class="fil2" d="M1015 897l0 -41c0,-10 -1,-16 -2,-18 -1,-3 -4,-4 -8,-4l-8 0c-3,0 -4,0 -5,-1 -1,-1 -2,-3 -2,-5 0,-2 1,-4 2,-5 2,-1 4,-2 6,-2 0,0 2,0 4,1 3,0 5,0 8,0 4,0 8,0 12,-1 1,0 2,0 2,0 3,0 5,0 6,2 1,1 1,3 1,7l0 67c0,7 1,11 2,13 1,1 4,2 8,2 1,0 2,0 3,0 1,-1 2,-1 2,-1 3,0 5,1 7,2 1,1 2,3 2,5 0,3 0,4 -2,5 -1,1 -3,2 -6,2 -1,0 -4,-1 -9,-1 -5,0 -9,-1 -13,-1 -8,0 -15,1 -23,1 -2,1 -3,1 -3,1 -3,0 -5,-1 -7,-2 -1,-1 -2,-3 -2,-5 0,-2 1,-4 2,-5 2,-1 4,-2 7,-2 1,0 2,0 3,1 1,0 2,0 3,0 4,0 7,-1 8,-2 1,-2 2,-6 2,-13zm-6 -96c0,-3 1,-5 3,-8 2,-2 5,-3 8,-3 3,0 6,1 8,3 2,3 3,5 3,8 0,3 -1,6 -3,8 -2,2 -5,4 -8,4 -3,0 -6,-2 -8,-4 -2,-2 -3,-4 -3,-8z"/>
   <path id="8" class="fil2" d="M1085 897l0 -81c0,-9 -1,-15 -2,-17 -2,-2 -5,-3 -9,-3l-7 0c-3,0 -5,-1 -6,-1 -1,-1 -1,-3 -1,-5 0,-2 1,-4 2,-5 1,-1 3,-2 6,-2 0,0 1,0 3,1 2,0 4,0 6,0 5,0 10,0 15,-1 1,0 1,0 2,0 2,0 4,0 5,2 1,1 2,3 2,7l0 105c0,7 0,11 2,12 1,2 3,3 8,3 0,0 1,0 3,-1 1,0 2,0 2,0 3,0 5,0 7,2 1,1 2,3 2,5 0,2 -1,4 -2,5 -1,1 -3,2 -6,2 -1,0 -4,-1 -9,-1 -5,0 -9,-1 -13,-1 -8,0 -16,1 -23,1 -2,1 -3,1 -4,1 -3,0 -5,-1 -6,-2 -1,-1 -2,-3 -2,-5 0,-2 1,-4 2,-5 2,-2 4,-2 7,-2 1,0 2,0 3,0 1,1 2,1 3,1 4,0 7,-1 8,-3 1,-1 2,-5 2,-12z"/>
   <path id="9" class="fil2" d="M1149 916l0 3c0,3 0,5 -1,6 -1,2 -3,2 -5,2 -3,0 -4,0 -5,-2 -1,-1 -2,-3 -2,-6 0,-2 0,-5 1,-9 0,-4 0,-6 0,-7 0,-3 0,-6 0,-10 -1,-3 -1,-5 -1,-6 0,-2 1,-4 2,-5 2,-2 3,-3 5,-3 2,0 4,1 5,3 1,1 1,4 1,8l0 3c0,6 3,11 9,15 6,4 14,6 24,6 7,0 13,-2 17,-5 4,-3 6,-8 6,-13 0,-3 0,-5 -2,-7 -1,-2 -3,-4 -5,-5 -2,-1 -6,-2 -13,-3 -7,-1 -12,-2 -16,-2 -10,-3 -18,-6 -23,-11 -4,-4 -7,-11 -7,-19 0,-9 4,-17 11,-22 6,-5 16,-8 27,-8 6,0 11,1 16,2 4,2 8,4 12,7 0,0 0,-1 0,-1 0,0 0,-1 0,-2 0,-2 0,-3 1,-4 1,-2 2,-2 4,-2 2,0 3,0 4,2 1,1 2,3 2,4 0,0 0,1 0,2 -1,7 -2,14 -2,22l0 6c0,2 0,4 -1,5 -1,1 -3,2 -5,2 -2,0 -3,-1 -4,-2 -1,-1 -1,-3 -1,-6l0 -3c0,-6 -3,-11 -7,-14 -5,-4 -11,-5 -19,-5 -7,0 -12,1 -17,4 -4,3 -6,7 -6,13 0,2 1,4 1,5 1,2 2,4 4,5 3,2 10,4 20,5 4,0 7,1 10,1 11,2 19,5 24,9 5,5 8,11 8,19 0,10 -4,19 -11,25 -8,6 -17,9 -29,9 -7,0 -13,-1 -18,-3 -6,-1 -10,-4 -14,-8z"/>
   <path id="10" class="fil3" d="M585 887l0 -16c-4,3 -14,6 -28,8l0 0c-10,1 -17,3 -20,6 -4,3 -5,7 -5,12 0,5 1,9 5,12 4,3 8,5 14,5 10,0 19,-3 25,-8 6,-5 9,-11 9,-19zm3 24c-5,5 -10,9 -16,12 -6,3 -13,4 -21,4 -11,0 -20,-2 -26,-8 -6,-5 -9,-13 -9,-22 0,-10 3,-16 8,-21 5,-5 14,-8 27,-10 0,0 1,0 3,0 20,-3 30,-9 30,-18 0,-5 -2,-9 -6,-12 -4,-3 -9,-5 -16,-5 -6,0 -11,1 -15,3 -5,2 -7,4 -7,6 0,1 1,2 3,4 1,2 2,4 2,5 0,3 -1,6 -3,7 -2,2 -4,3 -7,3 -4,0 -7,-1 -9,-4 -3,-2 -4,-6 -4,-10 0,-8 4,-14 12,-19 7,-5 17,-8 30,-8 13,0 22,3 28,9 6,5 8,15 8,27l0 48c0,4 1,8 2,9 1,2 2,3 5,3 2,0 4,-1 6,-3 1,-2 1,-4 1,-8l0 -11c0,-3 1,-5 2,-6 1,-2 2,-3 4,-3 3,0 4,1 5,3 1,1 1,3 1,7l0 15c0,6 -1,11 -5,14 -4,3 -9,5 -16,5 -5,0 -9,-1 -12,-4 -4,-3 -5,-7 -5,-12z"/>
   <path id="11" class="fil3" d="M656 897l0 -41c0,-10 -1,-16 -2,-18 -2,-3 -5,-4 -9,-4l-7 0c-3,0 -5,0 -6,-1 -1,-1 -1,-3 -1,-5 0,-2 1,-4 2,-5 1,-1 3,-2 5,-2 1,0 2,0 5,1 3,0 5,0 7,0 4,0 8,0 13,-1 1,0 1,0 1,0 3,0 5,0 6,2 1,1 2,3 2,7l0 67c0,7 0,11 2,13 1,1 3,2 7,2 1,0 2,0 3,0 2,-1 2,-1 3,-1 3,0 5,1 7,2 1,1 2,3 2,5 0,3 -1,4 -2,5 -1,1 -3,2 -6,2 -1,0 -4,-1 -9,-1 -5,0 -9,-1 -13,-1 -8,0 -16,1 -24,1 -1,1 -2,1 -3,1 -3,0 -5,-1 -6,-2 -1,-1 -2,-3 -2,-5 0,-2 1,-4 2,-5 2,-1 4,-2 7,-2 0,0 1,0 3,1 1,0 2,0 3,0 4,0 6,-1 8,-2 1,-2 2,-6 2,-13zm-7 -96c0,-3 1,-5 4,-8 2,-2 5,-3 8,-3 3,0 5,1 7,3 3,3 4,5 4,8 0,3 -1,6 -4,8 -2,2 -4,4 -7,4 -3,0 -6,-2 -8,-4 -3,-2 -4,-4 -4,-8z"/>
   <path class="fil0" d="M990 227c-2,1 -4,7 -5,9 -2,4 -3,7 -5,10l-9 21c-3,-9 15,-37 16,-39l-8 9c-10,14 -18,34 -10,52 3,6 8,9 14,11l4 2c1,1 1,1 2,2l0 1c0,0 0,1 0,1 1,3 0,8 0,12l-1 6c-1,2 0,5 0,5 0,1 0,1 0,1 0,0 0,0 0,0 -1,4 -3,5 -4,7l0 15c0,3 0,5 0,8 0,4 0,2 0,7 -1,0 0,0 0,0 0,2 0,3 0,4l0 12c-1,2 0,3 0,5 0,3 0,5 0,7 0,4 0,4 -1,7 -7,-5 -14,-16 -20,-20 -2,-1 -4,-3 -5,-4 0,-1 0,-1 0,-1l-4 -4c-3,-3 -6,-4 -9,-8l-4 -4c-3,-2 -4,-4 -6,-6 -1,-2 -1,0 -3,-2 -2,-3 -5,-6 -8,-9 -1,-1 0,0 -1,-1 0,0 0,-1 -1,-1l-4 -3c-4,-4 -7,-8 -12,-12l-1 -1c-2,-1 -4,0 -6,1l-5 2 -6 -5c-12,-11 -8,-17 -10,-34 0,-3 -3,-13 -6,-12 0,0 2,3 3,5 2,8 2,17 3,26 0,6 2,10 5,13 2,3 6,7 10,9 -1,1 -3,2 -4,3 -5,-5 -12,-10 -13,-19 -2,-11 3,-18 -3,-31l-2 -6c-2,-1 -3,-1 -5,-2 -1,0 -1,-1 -2,-1l-4 -2c0,0 0,0 -1,0 -2,-1 -4,-2 -6,-3l-2 -1c-1,0 0,0 -2,-1l-5 -1c-3,-2 -2,-3 -6,-2 0,2 0,1 1,3l13 15c1,1 7,6 6,9 -1,3 -13,13 -17,15 -6,3 -7,-1 -14,-9l-7 -8c-1,-1 -1,-2 -2,-3 -1,-1 -1,-1 -3,-1 1,2 8,11 10,13 2,3 8,11 11,12 4,1 12,-4 15,-6l12 -11c-3,4 -7,9 -11,12 -4,3 -11,8 -17,7 -4,-2 -15,-20 -19,-25 -1,-1 0,-1 -2,-1 -2,2 2,14 2,18 5,23 2,16 19,22 1,1 2,2 4,2l-2 -1c5,0 10,1 14,2 6,2 11,4 16,9 3,3 7,8 6,12 -2,3 -3,4 -3,7 0,3 14,15 17,19l12 12c1,1 1,1 2,2 2,1 3,2 4,4l15 15c2,1 4,4 6,5l7 8c2,1 3,2 4,3 1,2 3,2 4,4 1,1 0,1 1,2 1,2 0,0 1,1 2,1 3,3 4,4 -2,1 0,-1 -2,1 0,0 1,2 1,3 0,2 0,0 -1,1 -2,1 -8,0 -11,0 -1,0 -2,0 -3,0l-5 0c0,0 -2,0 -3,0 0,1 0,1 0,1 0,0 0,0 0,0 0,0 0,0 0,0l-1 1c-4,-1 1,-1 -3,-2 -1,0 2,1 -1,1 -1,0 -2,-1 -2,-1 -1,0 -4,0 -4,0l-7 0c0,0 -1,-1 -1,0 -4,0 -7,1 -12,0 -4,0 -13,-1 -18,0 -2,0 0,0 -2,0l-1 0c-4,-1 -9,0 -12,0l-21 0c-1,0 0,0 -1,0 0,0 -1,-1 -2,-1 -3,1 -8,0 -12,1 0,0 -1,0 -1,0 -1,1 -1,0 -2,1 -2,0 -3,2 -5,3l-3 3c-2,2 -3,5 -3,8l-6 0c0,0 0,0 0,0 0,0 -2,1 -3,1 -1,1 -1,1 -1,3 -6,-1 -30,-1 -32,0 -1,4 -1,11 1,14 6,-1 25,1 32,0 1,4 3,4 8,5 4,7 6,11 14,13 1,1 3,2 4,1 3,0 12,0 13,0l3 1c1,0 0,1 1,1 1,-1 2,-1 3,-1l9 -2c1,0 2,2 6,1 0,0 3,0 4,-1 0,1 0,1 0,2 0,0 0,0 0,0 1,-1 0,0 1,-1 1,-1 -1,0 1,0 2,-1 5,1 7,0l6 0c4,-1 1,0 3,1 3,-2 3,-2 6,-1 2,1 2,0 4,0 3,-1 3,0 6,0 8,-1 17,0 21,0 6,-1 12,0 18,0 0,0 1,0 1,0 7,-1 5,-1 9,7 1,2 2,3 0,5 -1,2 -6,7 -10,10l-6 6c-2,3 -6,5 -9,7 -2,3 1,0 -1,2 0,1 -1,1 -2,2 -2,1 -3,3 -5,5l-19 18c-1,0 -1,0 -1,0l-1 1c0,0 0,0 0,0l-6 6c0,0 0,0 0,0 -1,1 0,0 -1,1l-10 9c-1,2 0,0 -3,4 0,0 0,0 0,1l-11 10c-5,7 -4,4 -9,4l-7 1c6,1 8,0 15,4 1,1 2,1 3,2 17,13 9,34 5,37 2,-6 4,-7 4,-15 -1,-6 -3,-11 -6,-15 -3,-4 -7,-6 -11,-7l-3 -1c-1,0 -1,0 -1,0l-2 0c-2,-1 -6,-1 -7,1 -1,-1 0,0 -1,-1l-1 -1c0,0 0,0 0,0 0,0 0,0 0,0l0 -1c-4,1 -8,3 -11,5l-1 1c-1,1 -1,1 -2,2 -5,5 -9,14 -7,22l0 0c0,1 0,1 0,1 0,5 2,10 6,14 0,0 1,0 1,0 2,3 0,2 5,5 15,10 37,3 44,-18 0,-1 1,-5 2,-6 1,0 0,0 0,0l1 1c0,0 0,0 0,0 2,-2 3,0 4,-1 1,0 1,-1 1,-1 0,0 2,-1 2,-1 1,-1 1,-1 2,-1 2,-1 4,-1 6,-3 8,-7 14,-13 22,-20 7,-7 15,-14 22,-21l9 -8c1,-1 2,-2 2,-2l12 -11c1,0 0,0 1,-1 0,0 1,0 1,-1l10 -9c1,-1 1,-2 3,-3l2 -2c0,0 0,0 0,0 1,-1 2,-2 4,-3 1,2 1,4 0,5l0 1c0,0 0,0 0,0l0 3c0,0 0,0 0,0 0,0 0,0 0,0l0 1c0,0 0,0 0,0 0,0 0,0 0,0l1 1c0,3 0,7 0,8l0 9c0,2 0,7 0,8 0,0 0,-2 -1,1 0,2 1,5 1,6l0 20c0,3 -1,7 -1,12 1,4 1,11 1,15 0,2 -1,2 -1,4 1,2 1,2 1,3 0,0 0,0 0,0l-1 7c-2,0 1,0 0,0 0,2 0,1 0,3 1,0 0,0 1,0 1,0 0,-1 0,0 1,3 1,7 0,8 1,-3 1,-2 0,-3 -1,1 -1,1 0,3l0 16c0,2 0,5 1,7 -1,0 -1,0 -1,0l0 0c-1,1 1,3 0,4 0,2 1,0 -1,1 2,2 0,8 8,17 4,4 12,8 18,8 12,-1 15,-3 22,-11 0,0 1,0 1,0l3 -5c5,-11 2,-28 2,-40 0,-2 0,-2 0,-4l1 -28c0,0 0,-1 0,-3 0,-1 0,-3 0,-4l0 -4c0,0 0,0 0,-1 0,0 -1,-1 0,-2 0,-4 0,3 0,-1 -1,-3 0,-6 0,-7 0,-4 0,-7 0,-10l0 -9c0,-2 -1,-4 0,-6 0,-1 0,0 0,0l1 0c0,0 0,0 0,0 -2,-2 -1,-3 -1,-5 0,0 0,-1 0,-1l0 -19c0,-4 4,-7 7,-4 3,1 4,3 6,4 2,2 4,5 6,6l29 26c0,1 0,1 0,1 0,0 1,0 1,0l18 17c1,1 2,2 2,3 2,1 1,0 3,1 2,2 5,6 7,7 3,2 0,0 1,1 1,0 1,1 1,1 1,1 1,1 2,2 2,2 2,2 5,5l11 11c3,3 5,6 9,9 0,0 1,1 2,1l9 3c2,0 30,10 37,11 -2,-4 -27,-28 -33,-33 -7,-5 -15,-12 -20,-19 3,0 3,1 5,3 1,1 3,2 4,3 0,-1 -1,-2 -2,-3l-6 -7c0,0 0,0 0,0l-1 -1c0,0 0,0 0,0 0,0 0,0 0,0l2 -2c0,0 1,0 1,-1 0,0 0,0 0,0 -1,0 -1,-1 -2,0 -2,1 -2,2 -5,3l3 -3c-1,-2 -3,-3 -2,-5 -1,1 -1,1 -1,2 0,0 -1,1 -1,1 -1,1 -1,0 -1,1 -1,1 0,0 -1,1 -4,0 -4,3 -9,-2 -4,-5 -10,-9 -15,-13l-16 -14c0,0 0,-1 0,-1l-2 -1c-1,-1 0,1 -1,0 0,-1 1,1 0,-1 0,0 0,0 0,0l-7 -8c-2,-2 -6,-6 -5,-9 -2,1 -1,2 -2,1 -1,-1 0,0 0,-1l1 -2c0,-1 0,-2 -1,-3 -1,2 0,1 0,2l-2 2c0,0 0,0 0,0l0 -1c0,0 0,0 -1,-1 0,1 0,1 -1,1 -1,1 0,0 -1,0 1,2 -1,2 -3,1 0,1 0,1 -1,2 -1,0 1,-2 2,-3l2 -1c4,-2 5,-11 3,-14l-3 -3c-1,-2 0,-1 -1,-2l-2 -4c1,0 2,-1 2,-1 2,0 6,5 7,6l26 24c4,3 -1,-1 2,0 2,5 1,1 3,4 2,0 -1,3 4,3 0,1 0,-2 0,1 1,2 4,4 5,5 2,1 3,1 4,3 1,1 2,2 4,3 1,1 1,1 2,2l-1 1c0,0 0,0 0,0l3 3c0,0 1,0 1,1l4 3c4,4 16,17 20,18 2,1 4,2 7,3 2,1 4,2 6,3 0,0 1,0 1,0 2,1 2,2 3,5l14 25c1,2 3,4 4,6 2,3 3,6 5,9 2,2 1,0 1,3l2 -2 -3 -7c0,0 0,0 0,0 -2,-4 -3,-6 -5,-10 -1,-1 -1,-2 -1,-4l-1 1c-1,1 0,0 0,0l0 -2c-1,-2 -3,-4 -3,-6 0,-1 1,0 0,-1l-9 -16c-2,-2 -5,-3 -7,-4l-7 -4c-8,-5 -12,-10 -19,-17 -2,-1 -7,-5 -8,-7 2,0 2,1 3,2 1,1 2,2 3,3l-6 -7c-1,-1 -7,-3 -13,-10 -1,-1 -1,-1 -2,-2l-2 -2c-1,-1 -3,-3 -4,-4l-6 -5c0,0 -1,-2 -4,-4 0,-1 0,-1 0,-1l-5 -4c0,-1 -1,-1 -2,-2 -2,-1 -2,-3 -4,-4l-10 -10c0,0 -1,-1 -1,-1 -1,-1 -3,-2 -4,-4l-1 0c-2,-3 -3,-2 -1,-6 2,-2 3,-7 5,-9l10 0 -2 -1c6,1 4,0 8,0 1,0 2,1 3,1 0,0 1,0 1,0 0,0 0,0 0,0 0,0 0,0 0,0 0,0 0,0 0,0l7 -1c4,0 5,1 8,0 1,0 2,0 2,0 2,0 -1,0 2,1 2,0 2,-1 4,-1 2,0 2,1 4,0l18 0c1,-1 3,-3 4,-5l1 -2c1,-1 1,0 2,-1l1 -1c2,-1 3,-2 5,-2 2,-1 6,-1 10,0 4,1 5,3 8,4 -1,-1 -3,-3 -4,-4 -2,-2 -2,-2 -5,-3 4,0 2,2 5,1 1,-1 -1,-1 2,-1 0,0 1,0 2,0 -1,-1 -1,-1 -3,-2 2,-1 2,0 1,-3 3,2 0,1 4,1 0,-1 -1,-1 -2,-2 0,-1 0,0 1,-1 1,2 2,5 3,7 -1,0 0,0 -1,0 0,-1 0,-1 0,-1l-2 -2c0,0 -1,0 -1,0 0,0 -1,0 1,1 2,2 -1,-1 1,2 1,0 1,1 1,1 1,1 1,0 2,1 0,5 -1,0 -3,3 1,-1 5,1 7,2 2,0 3,-1 4,-2l-2 2 4 0c0,0 -1,0 0,1 0,1 0,0 2,0l2 1c0,0 0,0 0,0 1,1 1,1 3,1 -2,4 17,12 27,10 4,-1 6,-1 10,-3 4,-2 10,-8 11,-10l3 -4c4,-6 4,-15 3,-21 -2,-10 -4,-11 -5,-13l-6 -7c-1,0 -1,0 -2,-1l-4 -2c-6,-3 -18,-4 -25,-2 -9,4 -9,7 -16,12 5,0 8,-11 27,-11 21,0 38,24 24,46l-2 3c-5,4 -4,5 -12,7 -2,1 -10,2 -10,2 3,-1 5,-1 11,-4 11,-6 15,-14 15,-28 0,0 0,0 -1,0l-1 -3c-2,-10 -10,-17 -20,-19 -10,-2 -20,2 -26,8 -3,4 -6,4 -11,4l-6 0c-6,1 -12,-1 -19,-1l-34 0c-4,0 -6,1 -9,2 -3,2 -5,4 -7,5 0,-1 1,-2 2,-3 -1,0 -3,2 -4,2 -1,2 -1,3 -3,4 1,-1 1,-1 1,-2 1,-2 0,-1 1,-3 1,-1 4,-3 4,-4 -1,1 -4,1 -5,1l-13 -1c0,0 0,0 0,0l-2 1c0,0 0,0 0,0 0,0 0,0 0,0 -2,0 -7,-1 -10,-2 -2,0 -2,-2 -3,-4 3,1 10,0 13,0 16,-1 48,1 68,0l27 -1c-1,-2 -2,-1 -2,-1 -5,0 -2,1 -10,-1 -1,0 1,0 -1,0 0,0 -1,0 -1,0 0,0 0,0 0,0l-5 0c-2,0 -5,0 -6,-1l3 0c-3,-2 -4,0 -5,0l-1 0c-2,-1 -1,0 -2,0l-3 0c0,0 0,0 0,0 0,0 -1,0 -1,0 0,0 0,0 0,0 -3,0 -3,0 -6,0l-8 0c0,0 0,0 0,0l-5 0c0,0 0,0 0,0 0,0 -1,0 -1,0 0,0 0,0 0,0l-1 0c0,0 0,0 0,0l0 0c-3,0 2,-2 -5,-1 0,1 1,1 -1,1l-3 0c-2,0 -2,0 -4,0 0,0 -1,0 -2,0 0,0 0,0 0,0 -1,0 -1,1 -1,1 -3,-3 1,1 -1,-2l-7 0c-3,0 -5,0 -8,1 -2,0 -2,0 -4,0l-10 0c0,0 -1,0 -1,0l-3 0c-2,0 -3,0 -4,-2l-7 -12 6 -6c6,-4 15,-12 19,-17 3,1 5,4 7,6 3,-3 8,-6 13,-11l3 -3c3,-3 14,-13 17,-15 2,-1 4,-4 5,-6l2 -1c0,-3 -2,0 -4,2l-19 16c0,0 0,0 0,0l-17 14c2,-3 33,-31 35,-33l6 -6c1,0 1,0 1,0 1,-1 1,-1 3,-2 2,-2 2,-2 4,-1 2,1 1,-1 2,2 1,-1 2,-2 3,-3l19 -20c3,-2 4,-2 5,-5l10 -19c1,0 1,0 1,-1l3 -7c1,-2 1,-1 0,-2 -1,0 0,-1 -1,1 -1,2 -6,16 -10,21 0,0 0,0 0,0 1,-8 9,-20 10,-26 -2,0 -1,0 -3,1 -1,1 -1,0 -2,0 -1,1 0,0 -1,1 0,0 0,0 0,0 0,0 0,0 0,0 -1,0 -1,0 -1,0l-5 3c0,0 0,0 0,0 -1,0 -1,1 -2,1 -2,1 -3,2 -5,3 -16,7 -26,18 -38,30 -4,4 -13,14 -17,16 -1,-1 -2,-2 -2,-4 -2,1 -3,2 -5,4 0,0 0,0 0,0l-7 8c-6,5 -18,17 -21,22 1,3 3,5 5,7 -4,4 -8,6 -12,10 -2,1 -4,3 -6,5 -1,2 -4,4 -5,6 3,-1 9,-7 12,-10 3,-2 9,-9 12,-9 -2,4 -16,14 -21,19 -2,2 -2,1 -3,2 -1,0 -1,0 -1,0 0,0 0,0 0,0l-9 -9c-2,-2 -3,-3 -5,-4 -6,-5 -11,-6 -17,-10 0,-4 -1,-12 0,-14l0 -3c0,-2 0,-4 0,-6 0,-1 0,-3 0,-4 0,-4 0,-5 0,-10 0,-1 0,-3 0,-4l0 -8c0,-3 -1,-6 0,-10 0,-3 0,-4 -2,-6 -2,-3 -3,-1 -3,-5 0,-2 0,-2 0,-4 5,0 7,2 13,1 1,-5 4,-12 2,-17 -9,-19 -5,-13 0,-28 2,-5 2,-11 1,-17 -2,-12 -8,-20 -15,-27 -1,-1 -2,-2 -3,-3 -7,-5 -14,-10 -22,-14 -1,0 -2,1 -3,2 -1,2 4,12 5,16 1,4 7,21 9,25 2,2 1,0 2,2 0,0 -1,0 0,1 0,0 0,0 1,0 -2,2 -4,4 -6,6 -1,1 -2,2 -4,2l-14 -4c-8,-2 -7,-12 -7,-16 0,-4 0,-8 0,-12 1,-4 2,-19 1,-21 -2,2 -1,1 -2,2 -1,2 -1,1 -1,3z"/>
   <path class="fil4" d="M1014 431l-2 0c-2,-3 -1,-7 -2,-10l-16 3c1,0 2,2 2,2 1,1 0,3 1,5 0,1 0,1 1,2 -1,0 -1,0 -2,1 -2,-3 -4,-5 -5,-8l-5 1c-2,0 -10,6 -11,8 0,0 0,1 1,1 0,0 0,0 0,1 3,2 9,5 6,9 -3,-1 -9,-5 -10,-7l-2 3c-1,1 0,0 -1,1l-3 5c0,1 -1,2 -1,3l-4 11c0,1 0,1 0,1 0,0 0,0 0,0 -1,1 -1,1 -1,3l-1 6c0,3 0,6 1,10 0,2 1,4 2,6 0,1 1,2 1,3 3,9 10,17 17,22 17,13 46,13 64,1 6,-5 12,-10 16,-18 4,-6 7,-18 7,-27 0,5 -2,11 -3,16 -1,1 -1,3 -2,4l2 -11 -3 2c1,-3 2,-3 2,-5 -1,0 -2,1 -3,0l-6 -1c0,0 0,0 1,0l2 -1c1,0 4,1 5,1l1 -5 -2 1c0,0 0,0 0,0 0,0 -1,-1 -1,-1 -2,0 -6,0 -8,0 -1,-2 -1,-3 -1,-5l9 0c4,0 2,-1 2,-2 -1,-1 0,0 0,-2 0,0 -1,1 -2,1 -1,0 1,0 -1,1 1,-3 2,-2 2,-5l-3 2c0,0 0,1 0,1 -1,1 -2,1 -4,0 1,-1 1,0 1,-1l2 -2c1,-1 2,-1 1,-3 0,0 0,0 0,0 0,-3 1,-1 1,-3 0,1 -3,3 -5,3l-1 1c-2,2 -2,1 -2,0 2,-1 4,-3 5,-6 -2,0 -6,1 -5,3 -1,-1 -1,-1 -2,-2 1,0 0,0 1,0l1 -2c0,0 0,0 0,0l3 -6c-2,1 -5,5 -7,5 0,-2 4,-6 6,-7 -2,0 -4,2 -5,3l-4 1 -1 -2 4 -3c1,-2 2,-3 3,-4 0,-1 0,-1 0,-1l-2 -1c-2,-1 0,1 -2,-1l-1 2c-1,-1 0,-1 -2,-2l2 -1 -8 -6c-1,2 0,1 0,2l0 1c-3,-1 -1,0 -2,1l-4 6c-1,-1 -1,-1 -1,-1 -1,-1 -1,-1 -1,-1 2,0 0,0 1,-2 0,-2 2,-4 3,-7 0,0 -1,0 -1,0l-5 -3c-2,1 0,0 -1,1l0 0c-2,0 -4,0 -5,0l-2 -1c0,0 0,0 0,0l-1 -1c0,0 0,0 0,0 -2,0 -1,0 -3,0 1,2 0,8 -1,11z"/>
   <path class="fil0" d="M1032 440c-4,-2 -3,-1 -7,-2 -3,-2 -5,-2 -9,-2 0,-2 -1,0 2,-2 -6,0 0,2 -6,1 -2,0 -4,1 -6,1 -5,1 -8,4 -12,6 -3,2 -7,6 -9,9 -7,11 -7,20 -3,33 2,4 6,9 10,12 7,5 11,7 18,7 7,0 10,1 19,-4l12 -11c2,-1 2,-2 2,-3l2 -7c1,-4 1,-4 1,-7 1,-1 1,-4 1,-5 0,-4 -4,-16 -8,-19 -3,-2 -2,-2 -4,-4l-2 -1c0,0 -1,0 -1,0 -1,-1 0,0 0,-2z"/>
   <path class="fil5" d="M969 515c-1,0 -1,0 -2,0 -1,-1 0,-1 -1,-2 0,0 -1,-1 -1,-1l0 0c-1,-1 -1,-1 -1,-1 -6,-6 -9,-12 -13,-21 -2,-6 -3,-12 -3,-18 -1,-7 2,-21 6,-28 3,-7 8,-14 15,-20 -2,2 -3,4 -5,6 1,0 1,0 2,1 1,-2 2,-3 4,-4l0 -1c19,-17 43,-23 68,-12 0,0 0,0 1,0l0 0c6,2 11,6 16,10l4 4c0,0 1,1 1,1l3 3c0,0 0,0 0,0 0,0 0,0 0,0 1,1 1,1 1,2 9,11 12,22 12,38 0,15 -8,32 -18,42 -3,3 -7,6 -11,9 -2,1 -5,2 -6,3 -3,2 1,0 -2,1 -4,3 -10,4 -15,5l-4 1c0,0 0,0 0,0 16,-1 30,-7 42,-18 9,-9 17,-25 18,-42 1,-11 -1,-26 -7,-35 -1,-2 -2,-4 -3,-5 -1,-2 -2,-3 -3,-5 -1,-1 -2,-3 -3,-4 -1,-1 -3,-2 -4,-4 -1,-2 0,-1 -3,-2 -2,-2 -2,-3 -4,-4l-5 -3c0,0 0,0 0,0l-3 -2c-10,-5 -24,-10 -35,-8 -3,1 -3,1 -5,1 -5,0 -11,2 -16,3 -7,3 -14,8 -19,12 -14,10 -24,31 -24,49 0,5 0,7 1,12 2,14 8,25 17,36 2,1 2,2 5,1z"/>
   <path class="fil6" d="M1005 454l-5 -4c-2,1 -6,4 -7,7 8,8 3,6 4,16 1,4 0,2 -3,5 -1,1 -1,1 -2,2 1,3 5,8 8,9 2,-1 3,-3 4,-4l10 2c-1,1 2,6 3,7l9 -3c0,-3 -1,-5 -1,-6 0,-1 3,-8 6,-8 2,0 5,1 7,0 0,-2 1,-7 0,-9 -1,-2 -5,-1 -8,-2l-1 -1c-5,-9 -2,-6 0,-13 -1,-1 -1,0 -2,-2 -1,-2 1,0 -1,-1l-1 0c-1,-1 -1,-1 -3,-1 -1,-1 0,-1 -1,-1 -3,1 -4,6 -6,6 -1,1 -8,1 -10,1z"/>
   <path class="fil4" d="M816 461c0,0 -1,2 0,-1 0,0 0,0 0,0l0 3 2 0c0,4 0,10 2,13 1,-3 0,-8 2,-12 1,-2 -1,-2 1,-5 2,-4 0,-4 15,-3 1,0 1,0 1,0l-9 1c-4,0 -3,-1 -5,1 0,0 0,0 0,0 1,1 5,0 5,0 6,1 16,0 25,0l16 0c5,-1 5,0 7,-1 3,-1 -2,1 3,0l6 0c0,0 2,0 2,0l1 0c1,0 1,0 1,0 3,1 2,1 4,0l2 0c3,-1 7,-1 9,-1 0,0 0,0 1,0 3,-1 3,-1 4,-1 1,1 0,1 3,1 3,-1 5,-1 8,-1l12 -1c2,0 4,1 5,0 1,0 1,-1 1,-1l-23 -1 25 -1c-1,-3 0,0 -5,-2 0,-1 0,-1 -1,-1 -1,-1 -6,0 -9,0 -6,0 -12,-1 -17,-1l-43 0c-8,-1 -16,0 -25,0 -6,0 -14,-1 -20,1 -5,2 -7,8 -6,13z"/>
   <path class="fil4" d="M876 354l10 -8c1,-1 2,-2 3,-3l10 -8c1,0 2,-1 2,-1 3,-2 2,1 1,2l-3 3c0,0 -1,-1 -1,-1 0,2 -2,3 -3,3 0,0 -1,0 -1,0 0,0 1,-1 0,0 0,1 0,1 0,1 3,-1 5,-2 5,1 0,0 0,0 0,1 0,0 0,2 0,3 -2,-1 -1,1 -2,-2 0,1 0,1 -1,2l2 2c0,0 0,0 0,0l1 1c3,4 17,17 20,19 0,-1 0,-1 -1,-2l-4 -4c-2,-1 -4,-3 -6,-5l-7 -8c-1,-1 0,0 -1,-1l-2 -2c3,1 6,4 8,6 3,3 15,14 16,18 0,1 -1,0 0,0 0,0 1,1 2,2l1 2c2,4 7,8 11,12 0,0 0,0 0,0l3 2c0,0 0,0 0,0 0,0 0,0 0,1l1 1c3,2 4,5 8,5l-2 0c0,1 0,1 1,1 1,1 2,2 4,2l-20 -20c-1,-2 -2,-2 -3,-3l3 0c5,2 9,8 14,12 2,2 7,7 9,8l1 0c0,0 1,0 1,0 0,-1 0,0 -1,-1l-1 -1c2,-1 1,0 2,-2 -3,1 -2,0 -9,-6 -3,-4 -22,-24 -23,-24 2,0 1,0 2,0 3,3 7,7 11,10 1,1 2,2 3,3l35 28c1,1 1,0 1,1 -1,-2 0,0 -1,-1l-9 -9c0,0 0,-1 0,-1l0 0c0,0 0,0 0,0l-30 -30c-1,-1 -2,-2 -4,-4l-17 -17c-2,-3 -2,-3 -4,-5 -3,-3 -6,-6 -8,-9 -4,1 -24,22 -27,26z"/>
   <path class="fil4" d="M864 596c2,-2 3,-4 5,-5 2,-2 7,-6 8,-8 0,-1 1,-1 3,-2l1 0c1,0 1,1 2,-1l1 1c2,-1 0,-2 4,-3l1 -1c3,-3 9,-7 12,-8 3,0 1,1 4,-1 0,0 0,0 0,0l0 1c0,1 3,1 3,1l1 1c0,0 0,0 0,1 0,-3 -2,-1 1,-4 3,0 2,1 4,-1l5 -5c1,0 1,-1 2,-1l23 -23c2,-1 0,-1 2,-4 1,0 1,0 2,-1l2 -2c1,-1 1,-2 2,-2l5 -6c0,-1 0,0 0,-1 -1,1 -2,2 -3,3l-4 3c0,0 -1,0 -1,0l-29 28c-1,-2 4,-5 6,-7 1,-2 2,-3 4,-4 0,0 -1,0 -1,-1 1,-1 0,0 2,-1 3,-2 4,-4 7,-7l7 -8c0,0 0,-1 0,-1l2 -1c1,-1 1,0 0,-2 1,0 2,0 2,1 0,-1 1,-1 0,-2l-1 -1c-1,0 -2,2 -3,2l-6 8c-2,2 -6,4 -6,6l-5 6c0,0 0,0 0,0l-3 4c-2,1 -2,0 -1,3 -4,0 -3,1 -5,3l-3 3c-2,2 -2,1 -5,4 -2,1 -4,3 -5,4 -1,-1 0,-1 -1,-1 1,-1 6,-6 7,-7l-12 9c1,-2 12,-11 14,-13 1,0 1,-1 1,-1 0,0 1,-1 2,-2l10 -9c10,-10 11,-13 19,-21 0,-1 6,-7 6,-7 0,0 0,0 0,0 0,0 0,0 0,0 -4,-2 -9,5 -11,7 -9,8 -18,16 -26,24 -3,3 -6,5 -9,8 -3,4 -8,8 -11,11l-26 24c-2,3 -6,6 -8,9l3 0z"/>
   <path class="fil5" d="M1219 450c-24,4 -16,38 5,34 10,-2 16,-11 14,-19 -1,-9 -9,-17 -19,-15z"/>
   <path class="fil6" d="M1099 390c3,-1 3,-1 3,-1 0,0 0,0 0,0 2,-1 -1,-1 2,-1l5 -3c0,3 0,1 -1,3l0 0c0,0 0,0 0,0 4,0 8,-5 9,-6l1 -1c0,0 -2,1 0,-1 0,0 0,0 0,0l2 0c0,0 0,0 0,0l1 -1c0,0 0,-1 3,1 0,0 0,-1 -1,0 0,1 0,1 -1,1 -3,3 -11,13 -13,14 3,-1 5,-3 7,-5 2,-1 4,-3 7,-5l8 -9c2,-2 2,1 3,-3 1,0 1,1 1,1 2,0 0,0 1,0 0,0 0,-1 1,-2 2,-2 1,0 3,-2l2 -2c2,-1 0,0 2,-2 2,-2 0,0 2,-2 0,0 -2,-1 -2,-1 0,0 0,0 -1,0 0,0 0,0 0,0l-2 -1c1,0 3,-1 2,-3 0,-1 1,1 0,0l0 -1c3,0 1,1 3,-1 1,-1 1,-1 0,-3 2,0 2,0 3,1 0,-3 0,0 0,-3 2,0 2,0 3,0l2 -4c0,0 1,-1 1,-1l15 -15c1,-2 2,-3 4,-4l3 -4c-3,1 -2,2 -4,3 1,-3 6,-5 9,-7 1,-1 1,-1 1,-2 2,-1 1,1 2,-1 -1,1 -8,3 -10,4 -5,3 -10,7 -15,10l-20 19c-5,5 -10,11 -16,15 -4,3 -7,6 -10,9l-4 5c-3,3 -9,8 -11,11z"/>
   <path class="fil4" d="M990 227c0,8 -3,26 -3,34 -1,9 6,15 13,17 2,1 3,1 4,2 1,0 3,0 3,1 0,1 0,0 0,2 -1,-1 0,-1 -4,-2 1,4 0,2 2,2 1,1 1,-1 0,1 0,1 0,-1 0,0 3,1 2,0 3,2 0,0 0,0 0,0 0,1 0,0 0,0l-10 -1c0,0 -1,-1 -2,-1l-2 -1c0,1 0,1 0,1 0,1 -2,1 -3,1l-2 0c3,2 2,1 6,3 3,1 5,1 7,3 1,0 0,0 1,0l6 2c5,1 13,3 17,4 2,1 1,3 4,4l0 -5c0,0 -1,0 -2,1 -1,-4 1,3 0,-1 0,-2 1,0 0,-1l2 -1c2,0 1,1 3,2l0 0c0,0 0,1 0,1l5 8c-1,-3 -8,-4 -12,-5 -7,-2 -20,-4 -27,-5 -4,-2 -10,-3 -14,-4 12,3 29,9 43,12 6,2 9,4 10,9 1,0 1,0 1,0 0,1 -1,-1 0,0 1,1 1,2 1,2 0,2 0,3 0,4 2,-2 1,-3 1,-5l1 5c5,-2 1,-11 0,-14 -2,-4 -4,-8 -7,-13 -5,-10 -13,-11 -24,-14 -4,-1 -12,-2 -15,-4 -10,-4 -6,-21 -6,-30 0,-5 2,-14 0,-16z"/>
   <path class="fil4" d="M1024 564l0 -15c0,0 0,0 -1,1 -1,2 0,9 0,12 0,6 0,11 0,17l0 -6c0,0 0,0 0,1 0,0 -1,-1 -1,6 0,2 0,2 0,3 0,3 0,1 -1,3 0,0 0,0 0,0 1,2 0,0 0,0l1 3c0,0 0,0 0,0l1 37c0,7 0,38 1,41 0,-6 1,-50 1,-57 0,-5 -1,-5 2,-7 -1,5 0,1 0,7 1,7 0,36 1,38 1,1 0,0 0,3l1 24c-1,4 -2,8 -2,12 4,-5 4,-26 4,-31 1,-11 1,-90 0,-97l0 -6c-1,3 0,0 -1,1 -1,1 -1,2 -1,3l1 20c0,3 0,2 -1,2 -1,-2 -1,-11 -1,-16 0,-1 1,-2 1,-4l-2 2c-1,-4 0,-1 1,-4 -1,1 2,-1 0,1l-1 0c0,0 0,0 0,0 0,1 0,1 0,1l-1 -11c-3,3 -2,11 -2,16z"/>
   <path class="fil4" d="M988 339c1,0 2,0 3,-1 5,-1 8,-1 13,0l2 0c2,0 0,0 1,0l3 0c1,0 0,1 2,0 0,0 0,0 0,0 0,0 0,0 0,0l0 2c4,-2 4,0 5,1 0,0 1,0 -1,1 0,1 -4,1 -6,1 -1,1 -1,1 -3,1 0,0 -1,0 -1,0 -2,1 0,-1 -2,1 -2,1 0,1 -2,1 1,1 0,0 2,0 0,0 0,0 0,0l3 0c1,0 0,0 3,0 1,0 1,0 2,0 3,0 5,0 7,1 1,1 0,0 1,2 2,-1 2,0 0,-3 0,0 2,1 2,1l2 2 -1 1c1,1 2,1 2,3 0,2 0,-2 -1,1l-7 -4c-3,-1 -5,-1 -8,0 -2,0 -3,0 -4,1 0,0 0,0 0,0 -4,1 -7,3 -8,7 3,-2 3,-4 8,-5 20,-6 33,21 15,33 -10,7 -17,1 -22,-1 3,6 15,7 21,4 2,-1 4,-3 6,-4 0,0 0,0 0,0 1,1 1,2 1,3 0,2 0,1 0,2 0,1 -1,4 0,5 1,-2 1,-5 1,-7l1 -3c0,1 0,1 0,2l0 9c2,-1 0,1 1,-1 1,-1 0,-3 3,0l-1 -3c0,0 0,0 0,0l1 -1c2,-18 0,-36 2,-53 -3,-3 -6,-3 -10,-4 -3,0 -8,0 -12,0 -5,0 -15,0 -19,1l-5 4z"/>
   <path class="fil0" d="M1087 536c-4,1 -5,4 -3,7 3,3 5,4 7,6 5,5 9,9 13,13l20 18c2,2 4,6 8,5 0,0 6,-2 2,-7 -3,-4 -15,-14 -20,-18 -5,-6 -14,-13 -19,-19 -2,-2 -5,-6 -8,-5z"/>
   <path class="fil0" d="M898 645c1,1 1,1 2,1 1,0 1,0 1,0 0,0 0,0 1,0l0 1c-3,1 -6,-4 -11,-3 -4,1 -5,2 -7,5 0,0 0,0 0,0 -1,0 -1,0 -1,0l-1 3c-1,1 -1,1 -1,2 0,2 0,4 0,5l1 3c1,2 3,5 4,6 2,2 3,2 6,2 4,1 7,-1 10,-4l1 -1c1,-2 2,-5 2,-8 0,-5 -1,-4 -1,-8l1 -9 -7 5z"/>
   <path class="fil4" d="M1146 536l-8 -4c-16,-8 -20,-9 -13,-19 4,0 16,7 20,9 6,4 13,7 18,10 -2,0 -3,-1 -5,-1 -6,-3 -9,-5 -13,-7 -4,-2 -15,-9 -19,-9 1,4 14,7 16,10 -1,-1 -5,-3 -8,-4 -13,-6 -8,-1 -8,-1 1,0 0,-1 1,0 1,0 2,1 2,1l12 6c2,1 4,2 7,4 9,5 18,8 28,13 -1,3 -3,7 -4,10 1,-3 7,-13 9,-18 0,0 0,-1 0,0l-2 -1c-14,-6 -31,-15 -44,-20 -5,-2 -9,-5 -12,-1 -9,11 6,14 17,19 2,1 4,2 6,3z"/>
   <path class="fil5" d="M841 614l1 2c-5,0 -3,3 -4,4 -1,3 -2,1 0,6 1,4 3,6 7,8 0,0 1,1 2,1 2,0 1,0 1,0 -1,2 -14,-3 -13,-15 1,-4 5,-9 2,-7 0,0 -1,1 -1,1 -10,12 5,30 20,22 5,-3 8,-8 7,-11 -3,2 -3,8 -10,9 3,-2 3,-1 5,-4 1,-4 2,-6 1,-10 -1,-2 -3,-3 -5,-4 -2,-1 0,-2 -2,-1 -1,-2 -1,-1 0,-2 -5,-1 -5,-1 -10,0 -1,1 0,1 -1,1z"/>
   <path class="fil5" d="M1010 556c0,4 0,6 -1,9l-1 29c0,0 0,-1 0,0l0 3 1 -2c0,4 -1,6 -1,10 1,-1 1,-2 1,-4 1,2 1,4 -1,5 1,0 0,0 1,0 1,0 0,0 1,0 -1,4 0,4 -1,9l1 13c0,4 1,24 1,26 3,-1 2,-2 1,-4 -1,-2 -1,2 0,0l2 -3c1,4 0,-3 0,1l1 5c1,0 0,-12 0,-13l-2 2c0,-1 1,-12 1,-14l0 -30c0,0 0,0 0,0l0 -1c0,0 -1,0 -1,-2 0,-2 1,-3 1,-6 0,-3 0,-6 0,-10 0,-9 0,-17 -1,-25l-3 2z"/>
   <path class="fil0" d="M1217 481c-3,-2 -6,-5 -7,-9 -1,-3 0,-6 2,-9l1 -1c0,0 2,-1 2,-1 1,-1 1,-1 2,-1 2,-1 0,-2 7,-1 1,0 1,1 2,2 4,3 3,1 5,6 2,3 1,8 -2,11 -1,1 -2,1 -3,2 3,1 7,-2 9,-4 7,-10 0,-25 -13,-25 -20,-1 -21,28 -5,30z"/>
   <path class="fil6" d="M864 596c2,0 1,1 3,2 3,1 3,2 4,4l3 3c2,-1 2,-1 2,-2 -1,1 -1,0 -1,1 -1,2 -1,-2 0,1 0,1 1,1 1,2 1,1 0,-1 1,1 0,0 0,0 0,0l2 1 2 -2c0,0 0,0 0,0l0 2c2,-1 0,-1 3,0 -1,-2 0,-1 -1,-2 -1,0 0,0 -1,0l2 -1c0,0 0,-1 0,-1l-1 -1c-1,-1 -1,-1 -1,-3 4,-3 3,-1 5,-2 0,0 1,0 1,0 1,1 -1,1 5,0l-1 -1c-2,-1 0,0 -2,-1 -4,-2 -6,-7 -6,-13 -3,1 -1,-1 -3,3 2,-2 0,-1 1,-3 0,-1 1,-1 2,-3l-1 -1c-1,2 -1,1 -2,1l-1 0c-2,1 -3,1 -3,2 -1,2 -6,6 -8,8 -2,1 -3,3 -5,5z"/>
   <path class="fil5" d="M1021 370c0,2 1,2 -1,6 -1,2 -2,4 -5,3 3,-1 5,-5 4,-9 0,-3 -5,-8 -9,-7 -3,0 -5,1 -7,3 -3,4 -2,6 -1,11 -7,-10 3,-17 10,-15l6 2c0,0 0,0 0,1 0,-3 -4,-5 -6,-5l-5 0c0,0 0,0 0,0l-3 2c-16,10 4,29 15,17 2,-2 4,-6 2,-9z"/>
   <path class="fil5" d="M1166 471l1 -1c0,0 0,1 0,2l3 -4 -5 1 0 -3c0,0 -1,0 -1,0l-7 0c-1,0 0,0 -2,1 -1,-2 -1,-1 -2,-1 -2,0 -1,0 -1,0l-1 -1c-8,0 -16,0 -23,0 -5,0 -8,0 -6,6l3 3c1,2 2,2 4,3 1,0 9,0 11,0 6,-1 4,-6 11,-6 2,0 5,0 6,0 2,0 6,0 8,0 1,0 1,0 1,0z"/>
   <g>
    <path class="fil0" d="M1173 562c1,-2 1,-3 2,-4 3,0 17,7 18,8 2,3 0,4 2,6l6 4c2,1 2,0 3,1 3,1 6,1 7,0 0,0 1,-1 1,-1 2,-2 0,-1 2,-2 2,1 2,2 4,4 7,5 12,-2 13,-2l1 -1c0,0 0,0 0,0 0,0 0,0 0,0 0,0 0,0 0,0 -2,-5 -2,-7 -6,-11 0,-1 0,-1 -2,-2l-1 0c0,0 0,0 0,0 0,0 0,0 0,0l-4 -1c4,-9 3,-6 -5,-12 -6,-5 -7,-1 -12,-3l-16 -8c-1,-6 -4,-7 -13,-11 -3,-1 -1,0 -3,0 -1,0 0,0 0,-1 -3,-2 -8,-4 -9,-5l-2 0c-3,-3 -9,-6 -13,-7l-11 -5c0,-1 0,-1 -1,-1 -5,-2 -11,-5 -16,1 -2,2 -4,4 -5,6 -1,4 -2,9 0,14l1 1c1,2 0,1 2,3 0,0 0,0 0,0 4,3 1,1 6,4l40 20c2,1 3,1 5,2 2,1 4,2 6,3z"/>
    <path class="fil0" d="M1110 317c0,2 1,2 1,4l-7 9c-6,5 -12,12 -17,18l-13 15c0,0 -1,1 -1,1l-8 9c0,0 0,1 -1,1l-13 16c-1,2 -3,3 -2,6 3,-2 9,-10 12,-13l20 -23c7,-9 15,-18 23,-26 2,-3 6,-7 9,-9 -2,3 -11,14 -13,16 -9,9 -18,22 -27,32l-7 8c-2,3 -5,6 -5,10 2,-1 3,-1 3,-2 1,-1 1,0 0,-1 0,0 0,-1 0,-1 3,0 0,-1 2,-2 1,-1 1,0 2,0l6 -7c2,-1 10,-10 11,-13l5 -6c3,-2 4,-4 6,-7l12 -13c1,-1 2,-2 3,-3l3 -3c-1,2 -3,5 -5,7 -2,2 -4,5 -6,7 -2,3 -4,5 -6,7 -1,1 -1,1 -2,2l-4 5c-5,6 -11,11 -16,17 0,1 0,1 0,1l-3 3c-2,2 -6,4 -6,7 2,1 1,1 3,0 1,0 2,-1 2,-2 0,0 1,0 1,0l-4 5c-1,2 -2,3 -3,5 -1,1 -2,2 -2,4 -1,2 0,-2 -1,1 4,0 7,-5 10,-8l13 -15c2,-2 -2,2 0,-1l13 -14c0,0 0,-1 0,-1 0,0 0,0 0,0l11 -14c5,-6 10,-13 15,-18 2,1 2,2 3,1 3,-1 2,-1 3,-3 0,-1 2,-2 2,-3 3,-2 11,-12 12,-15 -4,3 -8,8 -11,12 -2,1 -3,3 -4,3 0,0 -1,0 -1,0 1,-4 18,-19 23,-25 3,-4 7,-8 11,-13 2,-3 1,-3 -2,-6l-9 -8c-2,1 -3,3 -5,5l-36 38z"/>
    <path class="fil0" d="M882 523l12 -4c2,-1 8,-3 10,-5 -1,2 -15,8 -17,9l-11 4c-1,1 -1,1 -2,1 -1,1 -1,0 -2,1 -1,0 -1,1 -1,1 0,0 0,0 -1,0l-1 1c0,-1 0,-1 0,-1l0 0c0,0 0,-1 0,-1 -3,2 -5,3 -7,4 -3,1 -6,2 -8,4 -3,1 -5,2 -8,3l-13 6c0,0 -1,1 -1,1 -11,7 -11,-5 -22,-6 -9,0 -13,2 -18,9 -10,14 7,39 27,23 4,-3 6,-10 6,-11 2,-3 27,-13 31,-15l47 -20c6,-3 11,-4 16,-7 3,-2 8,-9 11,-13 -10,-1 -22,3 -31,7 -2,2 -15,7 -17,9z"/>
    <path class="fil0" d="M972 368c-1,-1 0,1 -1,0 -1,-1 -2,-5 -4,-9l-31 -66c-2,-6 -4,-6 -4,-12 -4,0 -7,2 -11,0 -12,-7 -10,-22 1,-26 11,-3 23,7 16,22 -3,5 -3,4 0,10 5,12 10,26 16,40 2,4 13,30 15,33 1,1 0,0 1,1l1 3c0,1 0,0 0,1 0,-10 3,-9 0,-14l-26 -54c0,-2 -1,-3 -2,-4 0,-1 -1,-3 -2,-4 -1,-4 -3,-5 -1,-9 2,-6 5,-10 -1,-18 -12,-19 -39,-2 -28,18 4,6 11,6 13,11 6,11 11,22 16,33l21 42 4 5c0,0 1,1 1,1 1,1 6,5 7,5 2,-1 -1,-2 -1,-9z"/>
    <path class="fil0" d="M1092 280c0,0 0,0 0,0 0,1 -1,0 -1,-1l-1 -4c-1,-3 -1,-4 1,-6 2,-2 7,-6 7,-9l-12 10c3,-4 8,-7 9,-9 -5,1 -7,5 -9,6 -1,0 0,-1 -3,1 -1,1 0,-1 -1,1 -3,3 2,11 2,15 1,4 -1,5 -3,7 -5,5 -13,24 -17,31 -4,7 -6,12 -8,19 -1,2 -2,3 -2,3 -1,3 -1,6 -4,14l-1 2c0,0 -1,1 -1,1 -1,4 -4,11 -4,15 5,-9 8,-19 13,-29 1,-2 4,-7 4,-9 1,2 -1,5 -2,8 -1,3 -3,6 -4,9l-6 15c-1,3 0,1 0,2 2,-2 2,-3 3,-6 1,2 1,1 0,2 0,1 0,1 -1,2l1 1c0,0 -1,1 0,0l6 -9c0,-1 0,-1 0,-1l10 -16c6,-10 11,-19 16,-30l7 -15c3,-4 0,-4 2,-8 1,-3 4,-4 6,-5 11,-7 11,-5 5,-24 -1,-2 -1,-3 -2,-4l2 19c-2,2 -10,4 -12,5 2,-2 5,-3 8,-4l2 -1c0,-3 -1,-18 -2,-19 -1,0 -1,0 0,1 0,0 0,0 0,0l0 5c0,11 2,11 -2,13 -2,1 -3,2 -6,2z"/>
    <path class="fil0" d="M803 349c4,4 14,6 8,14 -1,2 -2,1 -3,2 0,0 0,0 0,0 0,0 0,0 0,0 -2,1 -1,1 -2,0 -4,-1 -7,-5 -10,-6 0,3 2,8 3,10 3,3 7,4 12,4 1,0 1,0 2,0 4,-2 6,2 13,5l67 43c5,3 17,11 22,13 3,1 2,-1 4,1 0,0 5,2 7,0 -3,-4 -2,-4 -6,-6l-47 -29c1,0 0,0 1,0l48 27c-2,-3 -14,-10 -18,-12 -7,-5 -24,-14 -32,-19l-51 -30c0,-6 1,-11 -3,-15 -3,-3 -12,-4 -15,-2z"/>
    <path class="fil0" d="M1051 577c2,-1 1,0 2,0 -1,1 -3,2 -4,4 0,4 10,22 13,28 5,9 9,18 14,27 5,9 9,17 16,25 3,4 16,19 21,22 -1,-6 -13,-34 -16,-39 -6,-10 -10,-17 -14,-24 -2,-2 -1,-1 -3,-3 -1,-1 -3,-5 -4,-7 -3,-4 -5,-9 -8,-13 -2,-5 -5,-10 -8,-14 0,-2 -3,-6 -4,-7l-1 0c-1,0 -3,0 -4,1z"/>
    <path class="fil0" d="M1210 362c-2,1 -4,3 -6,5l-7 4c-1,1 0,0 -1,1l-1 1c0,0 -1,0 -1,0 0,0 0,1 -1,1 0,0 -1,1 -2,1l-6 5c-1,1 0,-1 -4,3l-45 29c-5,4 -9,6 -13,9l-13 9 0 4c0,0 0,-1 1,0 9,-3 23,-14 31,-18l54 -36c1,-1 1,0 2,-1l8 -10c0,0 0,0 0,-1l1 -1c2,-2 5,-4 7,-5 3,-1 6,-1 8,-2 1,-2 4,-7 5,-8l-2 -1c-4,-1 -11,5 -13,7l-16 9c-15,9 -44,29 -58,39l-30 20c-4,3 -14,10 -2,3 17,-10 29,-19 45,-29 2,-1 4,-3 7,-5l14 -10c9,-5 21,-14 30,-19 2,-1 6,-4 8,-4z"/>
    <path class="fil0" d="M1135 671l2 -2c-1,-2 -4,-8 -5,-11 -2,-5 -8,-20 -9,-23 -1,-2 -3,-2 -4,-4 -4,-6 -14,-21 -18,-26 -3,-3 0,2 -6,-6l-5 -7c0,-1 -1,-1 -2,-2 -2,0 1,0 -2,1 -1,-1 0,-2 -1,-3 0,0 0,0 0,0l-1 -1c-3,0 2,-1 -1,0 -1,0 0,0 -1,1 1,2 2,0 2,3 -1,0 -1,-1 -2,-1l-2 -2c0,-1 0,-1 0,-1 0,-1 0,-1 0,-2 -1,-1 0,0 -1,-1 -2,0 0,-1 -2,1 0,0 0,1 0,1l1 3c1,2 1,2 2,3 5,6 0,1 2,6l21 31c8,13 5,10 14,22 3,4 6,7 9,10 2,3 6,9 9,10z"/>
    <path class="fil0" d="M785 514c2,-1 9,-3 11,-3 7,0 10,6 8,12 -1,4 -1,4 -9,6 -1,0 -4,1 -6,1 2,3 9,6 13,5 12,0 9,-9 16,-11 10,-4 48,-11 63,-15l13 -3c-1,-1 -3,0 -4,0 -1,0 0,0 -1,0 -1,0 0,0 -1,0 -2,0 -3,0 -5,0l-28 4c-7,2 -15,3 -22,4l-5 1c-5,1 -8,1 -13,0 1,-1 1,0 5,0 0,-1 0,-1 2,-1 3,0 60,-11 60,-11l-35 5c0,0 0,0 0,0l-2 0c-3,1 -1,2 -5,1l-13 2c-3,1 -6,2 -10,1 -1,0 -2,-1 -3,-2l-2 -1c-2,-2 -3,-4 -5,-5 -6,-4 -13,-3 -17,1l-1 1c-1,1 0,0 -1,1 -2,3 -3,4 -3,7z"/>
    <path class="fil0" d="M879 433l-50 -19c-2,-1 -2,0 -4,-1l-9 -3c0,0 0,0 0,-1 -3,-2 -3,-1 -4,-3 -1,-3 -2,-15 -13,-15 -5,0 -9,3 -12,6 -6,9 0,22 9,23 7,1 10,-1 15,-3 3,-2 10,1 14,2 15,5 29,11 45,13l8 1c1,0 1,1 1,0z"/>
    <path class="fil0" d="M1156 503l17 7c6,2 13,5 19,7l20 6c4,2 4,5 15,8 2,1 -1,0 1,0l1 1c1,-3 0,-2 3,-4l4 -3c0,0 0,0 0,-1 0,0 0,0 1,0 1,-1 6,-4 6,-6 0,-1 -5,-8 -6,-10 -3,-3 -4,-5 -9,-5 3,2 12,12 13,15 -3,-1 -5,-4 -8,-7 -3,-4 -3,-5 -8,-7 -1,2 -8,9 -10,9 1,-2 6,-6 8,-8 0,0 0,0 1,-1 0,0 -1,0 -1,0 0,0 0,0 0,0 -3,0 -4,1 -10,6 -4,3 -7,1 -14,-1 -17,-5 -16,-4 -30,-6 0,1 -1,0 4,2l35 8c1,1 5,1 5,1 -1,3 -8,0 -13,-1 -6,-1 -11,-2 -16,-4 -6,-2 -10,-2 -13,-3 -2,-1 -2,-1 -4,-1 -1,-1 -7,-3 -9,-3 -2,0 -1,0 -2,1z"/>
    <path class="fil0" d="M916 679c3,-2 4,-3 5,-6 2,-2 3,-4 4,-6 3,-5 6,-9 8,-14 7,-11 21,-34 26,-45l11 -21c0,0 0,0 0,-1 0,0 0,0 0,0l5 -8c0,0 -1,1 0,-1 0,-1 1,-1 1,-2l-2 1c-1,-1 -1,-1 -1,-1l-17 30c0,-1 1,-1 1,-1 0,-2 0,0 0,-2 1,0 1,-2 1,-2 5,-8 9,-21 15,-25 1,-1 3,-2 3,-4 0,0 0,0 0,0l0 -1c0,0 0,0 0,0 0,-3 -1,-2 -1,-5 0,0 0,0 0,1 -1,0 -1,0 -1,0 0,0 0,0 -1,1 -2,1 -2,1 -3,4l-8 16c0,0 0,0 0,0 0,0 -1,0 -1,0 0,1 0,0 0,1 -3,3 -4,7 -6,11l-28 55c0,0 0,0 0,1 -1,1 -1,1 -1,2 -3,4 -8,13 -8,18 -1,2 -1,2 -2,4z"/>
    <path class="fil0" d="M1046 613c-1,-1 -1,-2 -1,-4 -2,3 1,13 1,15 1,7 6,21 9,28l10 33c1,4 2,8 6,8 5,-1 3,-6 2,-10l-10 -33c-2,-8 -4,-16 -6,-23 -2,-10 -1,-1 -4,-8l-1 -3c-1,-1 -1,-1 -1,-2 0,-1 -1,-2 -1,-2l-1 0c0,0 -1,0 -1,0 0,-3 1,-2 -1,-3l0 3c0,0 0,0 0,0l-1 1z"/>
    <path class="fil0" d="M916 624l7 -12c5,-7 21,-28 23,-35 0,0 0,0 0,0l-2 2c-1,0 -1,1 -1,1 -4,5 -8,12 -11,15l-19 27c-2,2 -3,6 -5,7l-1 1c-1,2 -2,2 -4,3 0,0 -1,0 -2,1l-3 2c-1,0 -2,0 -2,0 -1,1 -1,1 -3,1l-7 4c-1,0 -1,0 -1,1 -3,2 -4,3 -6,6 -1,3 -1,2 -2,4 0,1 0,1 0,2 -1,2 -1,2 0,4 0,1 0,3 0,3 0,1 -1,-1 0,1 1,2 0,0 0,2l4 5c1,1 2,2 4,3l2 1c3,1 4,1 7,1 0,0 1,-1 1,-1l1 0c1,0 1,0 1,-1 -2,1 -5,1 -6,0l-6 -3c0,0 -1,-1 -1,-1 -1,-1 -1,-1 -2,-2 -3,-4 -3,-11 -1,-15 4,-12 21,-11 28,-19 -6,13 -2,20 -3,27 0,2 -1,3 0,5 1,-1 0,0 1,-2 3,-3 3,-9 3,-13l0 -9c1,-3 8,-13 11,-16l28 -43c1,-1 0,-1 1,-3 1,-2 1,0 2,-3 -6,1 -3,0 -5,5l-9 12c-1,3 -3,5 -4,7 -3,3 -15,23 -18,25z"/>
    <path class="fil0" d="M1157 426c3,1 19,-9 20,-10l49 -28c3,-2 7,-5 10,-6l-38 25c-2,1 -4,2 -6,3 -8,5 -15,9 -23,14l-23 14c2,1 24,-10 27,-12l61 -36c3,-2 3,-1 5,-5 0,-2 2,-5 2,-7 -5,0 -36,19 -42,23l-31 19c-2,1 -9,5 -11,6z"/>
    <path class="fil0" d="M948 693c3,-7 2,0 7,-15 6,-18 9,-27 13,-44l2 -10c-1,2 -20,58 -21,62 0,-2 9,-29 10,-31 1,-5 9,-28 9,-32 -4,8 -15,40 -19,51 0,2 -1,3 -1,4 -1,3 -2,6 -2,9 0,3 0,4 2,6z"/>
   </g>
   <path class="fil4" d="M1115 316c0,0 1,0 1,1l5 3c0,0 0,0 0,0l5 4 3 -3c0,-1 0,-1 0,-1 0,0 1,0 1,-1 1,-2 3,-3 4,-5 -1,0 -2,1 -3,2l-2 -1 1 1c0,0 0,1 0,1l1 0c-2,1 -1,1 -2,1 0,0 0,0 0,0 -2,0 -2,0 -4,3 -1,-1 -1,1 0,-3 -1,1 -1,1 -2,1 0,-2 -1,-2 -1,-3 2,-1 0,0 2,-2l12 -14c4,-2 2,-2 6,-5 1,-1 8,-10 9,-12 -4,2 -7,9 -11,11 1,-3 9,-11 12,-13l2 -2c0,0 0,0 0,0 -1,-1 -2,-2 -2,-3 -3,1 -36,38 -37,40z"/>
   <path class="fil6" d="M1150 595c0,0 0,0 0,0 0,0 0,1 0,1l-1 1c0,0 0,0 0,0 0,0 0,0 0,0 3,1 5,5 6,7l3 3c0,1 1,2 2,3 4,3 -1,-1 4,2l2 1c0,1 1,2 3,2 0,0 0,0 0,0l0 0c-1,1 0,-1 -4,-2 1,4 5,6 8,9 2,2 2,1 3,1l1 -1c0,1 -1,2 -1,2 0,2 0,0 1,2 1,0 1,0 1,0l7 8c1,1 0,0 2,1 -1,-3 -1,-3 -2,-5l-6 -9c-1,-1 0,0 -1,-1 0,0 0,0 0,0l-6 -12c-1,-2 -1,-3 -4,-3l1 -1 -10 -5c0,-1 0,-1 0,-1 0,0 -1,0 -1,0 0,0 0,0 0,0l-6 -4c0,1 1,1 0,1 -2,1 -1,0 -2,0z"/>
   <path class="fil0" d="M917 268l-1 -2c-1,2 -1,5 0,7 1,2 4,5 6,6 4,1 9,0 10,-3 4,-7 1,-1 3,-8 1,-2 -3,-6 -5,-7l-3 -1c-4,-1 -9,1 -10,4 -1,2 0,0 0,1 0,1 0,1 0,3z"/>
   <path class="fil5" d="M807 551c-3,0 -4,0 -6,2 -8,7 -3,16 5,17 3,0 5,-1 7,-2 2,-2 3,-4 3,-7 0,-5 -5,-10 -9,-10z"/>
   <path class="fil5" d="M889 650c-4,2 -7,6 -5,11 0,0 0,1 0,1l0 1c2,3 6,5 10,4 11,-1 8,-21 -5,-17z"/>
   <path class="fil5" d="M798 397c0,0 0,0 0,0l-1 1c-3,0 -7,1 -7,7 0,6 4,8 9,8 2,0 1,0 3,-1l0 0c5,-3 3,-10 1,-12 -1,-1 -4,-3 -5,-3z"/>
   <path class="fil4" d="M995 322c1,1 1,1 1,2 3,0 6,0 9,0 0,0 0,0 -1,1 -1,2 0,-1 1,5 1,-3 2,-5 5,-5l0 4c3,-3 1,-3 4,-4l0 3c3,0 2,-5 5,-2 1,1 0,2 1,4 0,0 0,-1 1,-1l0 0c0,0 0,0 0,0l1 -4 1 3 1 -2c0,4 1,1 1,1 1,2 0,1 1,3 1,1 1,1 2,2l0 -9c-7,-4 -16,-3 -25,-2 -1,0 -3,0 -4,1l-4 0z"/>
   <path class="fil4" d="M1185 553c2,-2 2,-3 4,-2 1,2 0,2 0,4 1,-1 1,-2 2,-3 1,0 11,5 12,6l-3 7c2,-4 6,-7 7,-7 1,0 1,0 2,0 0,0 0,0 1,-1 -1,2 0,2 1,4 1,0 2,-2 2,-2 1,-2 0,-2 2,-2l-5 13c2,-1 7,-12 9,-15 -3,-2 -9,-5 -13,-5 -1,2 -2,4 -3,6 -3,-2 -20,-10 -23,-11 2,5 7,1 5,8z"/>
   <path class="fil5" d="M1218 514l6 6c4,3 3,2 7,0 0,0 -4,3 -5,3 -3,0 -5,-3 -7,-4 2,2 5,5 7,6 2,0 5,-4 7,-5 0,-2 0,0 0,-2 0,-1 0,1 1,-1 -1,-2 -3,-4 -4,-5 0,-1 -1,-2 -2,-2 0,-1 -1,-1 -2,-2 -2,1 -5,4 -8,6z"/>
   <path class="fil5" d="M1220 566c-5,2 -2,12 4,10 6,-2 2,-12 -4,-10z"/>
   <path class="fil7" d="M1011 680c1,2 1,2 -1,3 -1,-1 -1,-1 -1,-2 -2,-1 0,0 -2,0 0,0 0,0 0,0 0,0 0,0 0,0 -1,-3 0,0 0,-1l-1 -1c0,0 0,-1 1,-2 1,-1 2,0 4,-1 -2,-1 -6,1 -7,3 -1,2 0,6 2,7 1,1 2,1 4,1 1,0 2,-1 2,-1 1,0 1,-1 1,-1 1,-1 0,-1 0,-2 0,-2 0,-2 -1,-2l0 0c0,0 -1,-1 -1,-1z"/>
  </g>
 </g>
</svg>
